solid lcd-display-box-lid
facet normal 0.0 0.0 -1.0
outer loop
vertex -132.417108055933 -28.602642479616 3.60955709766131e-13
vertex -128.417108055933 -43.0198198435242 3.60955709766131e-13
vertex -132.417108055933 -96.702642479616 3.60955709766131e-13
endloop
endfacet
facet normal 0.0 0.0 -1.0
outer loop
vertex -128.417108055933 -43.0198198435242 3.60955709766131e-13
vertex -132.417108055933 -28.602642479616 3.60955709766131e-13
vertex -26.3471080559329 -28.602642479616 3.60955709766131e-13
endloop
endfacet
facet normal 0.0 0.0 -1.0
outer loop
vertex -128.417108055933 -43.0198198435242 3.60955709766131e-13
vertex -26.3471080559329 -28.602642479616 3.60955709766131e-13
vertex -30.3471080559329 -43.0198198435242 3.60955709766131e-13
endloop
endfacet
facet normal 0.0 0.0 -1.0
outer loop
vertex -30.3471080559329 -43.0198198435242 3.60955709766131e-13
vertex -26.3471080559329 -28.602642479616 3.60955709766131e-13
vertex -30.3471080559329 -82.8498198435241 3.60955709766131e-13
endloop
endfacet
facet normal 0.0 0.0 -1.0
outer loop
vertex -132.417108055933 -96.702642479616 3.60955709766131e-13
vertex -128.417108055933 -82.8498198435241 3.60955709766131e-13
vertex -26.3471080559329 -96.702642479616 3.60955709766131e-13
endloop
endfacet
facet normal 0.0 0.0 -1.0
outer loop
vertex -128.417108055933 -82.8498198435241 3.60955709766131e-13
vertex -132.417108055933 -96.702642479616 3.60955709766131e-13
vertex -128.417108055933 -43.0198198435242 3.60955709766131e-13
endloop
endfacet
facet normal 0.0 0.0 -1.0
outer loop
vertex -26.3471080559329 -96.702642479616 3.60955709766131e-13
vertex -128.417108055933 -82.8498198435241 3.60955709766131e-13
vertex -30.3471080559329 -82.8498198435241 3.60955709766131e-13
endloop
endfacet
facet normal 0.0 0.0 -1.0
outer loop
vertex -26.3471080559329 -96.702642479616 3.60955709766131e-13
vertex -30.3471080559329 -82.8498198435241 3.60955709766131e-13
vertex -26.3471080559329 -28.602642479616 3.60955709766131e-13
endloop
endfacet
facet normal -0.0 -0.0 1.0
outer loop
vertex -132.417108055933 -96.702642479616 8.10000000000036
vertex -128.417108055933 -82.8498198435241 8.10000000000036
vertex -132.417108055933 -28.602642479616 8.10000000000036
endloop
endfacet
facet normal -0.0 -0.0 1.0
outer loop
vertex -128.417108055933 -82.8498198435241 8.10000000000036
vertex -132.417108055933 -96.702642479616 8.10000000000036
vertex -26.3471080559329 -96.702642479616 8.10000000000036
endloop
endfacet
facet normal -0.0 -0.0 1.0
outer loop
vertex -128.417108055933 -82.8498198435241 8.10000000000036
vertex -26.3471080559329 -96.702642479616 8.10000000000036
vertex -30.3471080559329 -82.8498198435241 8.10000000000036
endloop
endfacet
facet normal -0.0 -0.0 1.0
outer loop
vertex -30.3471080559329 -82.8498198435241 8.10000000000036
vertex -26.3471080559329 -96.702642479616 8.10000000000036
vertex -30.3471080559329 -43.0198198435242 8.10000000000036
endloop
endfacet
facet normal -0.0 -0.0 1.0
outer loop
vertex -132.417108055933 -28.602642479616 8.10000000000036
vertex -128.417108055933 -43.0198198435242 8.10000000000036
vertex -26.3471080559329 -28.602642479616 8.10000000000036
endloop
endfacet
facet normal -0.0 -0.0 1.0
outer loop
vertex -128.417108055933 -43.0198198435242 8.10000000000036
vertex -132.417108055933 -28.602642479616 8.10000000000036
vertex -128.417108055933 -82.8498198435241 8.10000000000036
endloop
endfacet
facet normal -0.0 -0.0 1.0
outer loop
vertex -26.3471080559329 -28.602642479616 8.10000000000036
vertex -128.417108055933 -43.0198198435242 8.10000000000036
vertex -30.3471080559329 -43.0198198435242 8.10000000000036
endloop
endfacet
facet normal -0.0 -0.0 1.0
outer loop
vertex -26.3471080559329 -28.602642479616 8.10000000000036
vertex -30.3471080559329 -43.0198198435242 8.10000000000036
vertex -26.3471080559329 -96.702642479616 8.10000000000036
endloop
endfacet
facet normal 1.0 0.0 0.0
outer loop
vertex -26.3471080559329 -28.602642479616 3.60955709766131e-13
vertex -26.3471080559329 -96.702642479616 8.10000000000036
vertex -26.3471080559329 -96.702642479616 3.60955709766131e-13
endloop
endfacet
facet normal 1.0 0.0 0.0
outer loop
vertex -26.3471080559329 -96.702642479616 8.10000000000036
vertex -26.3471080559329 -28.602642479616 3.60955709766131e-13
vertex -26.3471080559329 -28.602642479616 8.10000000000036
endloop
endfacet
facet normal -0.0 -1.0 -0.0
outer loop
vertex -26.3471080559329 -96.702642479616 8.10000000000036
vertex -132.417108055933 -96.702642479616 3.60955709766131e-13
vertex -26.3471080559329 -96.702642479616 3.60955709766131e-13
endloop
endfacet
facet normal -0.0 -1.0 -0.0
outer loop
vertex -132.417108055933 -96.702642479616 3.60955709766131e-13
vertex -26.3471080559329 -96.702642479616 8.10000000000036
vertex -132.417108055933 -96.702642479616 8.10000000000036
endloop
endfacet
facet normal -1.0 0.0 0.0
outer loop
vertex -132.417108055933 -28.602642479616 8.10000000000036
vertex -132.417108055933 -96.702642479616 3.60955709766131e-13
vertex -132.417108055933 -96.702642479616 8.10000000000036
endloop
endfacet
facet normal -1.0 0.0 0.0
outer loop
vertex -132.417108055933 -96.702642479616 3.60955709766131e-13
vertex -132.417108055933 -28.602642479616 8.10000000000036
vertex -132.417108055933 -28.602642479616 3.60955709766131e-13
endloop
endfacet
facet normal -0.0 1.0 0.0
outer loop
vertex -132.417108055933 -28.602642479616 8.10000000000036
vertex -26.3471080559329 -28.602642479616 3.60955709766131e-13
vertex -132.417108055933 -28.602642479616 3.60955709766131e-13
endloop
endfacet
facet normal -0.0 1.0 0.0
outer loop
vertex -26.3471080559329 -28.602642479616 3.60955709766131e-13
vertex -132.417108055933 -28.602642479616 8.10000000000036
vertex -26.3471080559329 -28.602642479616 8.10000000000036
endloop
endfacet
facet normal -0.0 1.0 -0.0
outer loop
vertex -128.417108055933 -82.8498198435241 8.10000000000036
vertex -30.3471080559329 -82.8498198435241 3.60955709766131e-13
vertex -128.417108055933 -82.8498198435241 3.60955709766131e-13
endloop
endfacet
facet normal -0.0 1.0 -0.0
outer loop
vertex -30.3471080559329 -82.8498198435241 3.60955709766131e-13
vertex -128.417108055933 -82.8498198435241 8.10000000000036
vertex -30.3471080559329 -82.8498198435241 8.10000000000036
endloop
endfacet
facet normal -1.0 0.0 0.0
outer loop
vertex -30.3471080559329 -43.0198198435242 8.10000000000036
vertex -30.3471080559329 -82.8498198435241 3.60955709766131e-13
vertex -30.3471080559329 -82.8498198435241 8.10000000000036
endloop
endfacet
facet normal -1.0 0.0 0.0
outer loop
vertex -30.3471080559329 -82.8498198435241 3.60955709766131e-13
vertex -30.3471080559329 -43.0198198435242 8.10000000000036
vertex -30.3471080559329 -43.0198198435242 3.60955709766131e-13
endloop
endfacet
facet normal -0.0 -1.0 -0.0
outer loop
vertex -30.3471080559329 -43.0198198435242 8.10000000000036
vertex -128.417108055933 -43.0198198435242 3.60955709766131e-13
vertex -30.3471080559329 -43.0198198435242 3.60955709766131e-13
endloop
endfacet
facet normal -0.0 -1.0 -0.0
outer loop
vertex -128.417108055933 -43.0198198435242 3.60955709766131e-13
vertex -30.3471080559329 -43.0198198435242 8.10000000000036
vertex -128.417108055933 -43.0198198435242 8.10000000000036
endloop
endfacet
facet normal 1.0 0.0 0.0
outer loop
vertex -128.417108055933 -43.0198198435242 3.60955709766131e-13
vertex -128.417108055933 -82.8498198435241 8.10000000000036
vertex -128.417108055933 -82.8498198435241 3.60955709766131e-13
endloop
endfacet
facet normal 1.0 0.0 0.0
outer loop
vertex -128.417108055933 -82.8498198435241 8.10000000000036
vertex -128.417108055933 -43.0198198435242 3.60955709766131e-13
vertex -128.417108055933 -43.0198198435242 8.10000000000036
endloop
endfacet
endsolid lcd-display-box-lid
